<svg width="1180" height="320" viewBox="0 0 1180 320" fill="none" xmlns="http://www.w3.org/2000/svg" role="img" aria-labelledby="title desc">
  <title id="title">Setup OS logo</title>
  <desc id="desc">Setup OS wordmark with the half gear circuit brand mark.</desc>
  <rect width="1180" height="320" rx="56" fill="#071923"/>
  <g transform="translate(64 48) scale(.4375)">
    <path d="M232 88h-54l-9 45a134 134 0 0 0-28 12l-38-25-38 38 25 38a134 134 0 0 0-12 28l-45 9v54l45 9a134 134 0 0 0 12 28l-25 38 38 38 38-25a134 134 0 0 0 28 12l9 45h54v-70a104 104 0 0 1 0-208V88Z" fill="#6EE7D8"/>
    <path d="M232 88h-54l-9 45a134 134 0 0 0-28 12l-38-25-38 38 25 38a134 134 0 0 0-12 28l-45 9v54l45 9a134 134 0 0 0 12 28l-25 38 38 38 38-25a134 134 0 0 0 28 12l9 45h54" stroke="#0B3750" stroke-width="20" stroke-linejoin="round"/>
    <path d="M232 154a104 104 0 0 0 0 208M232 204a54 54 0 0 0 0 108" stroke="#0B3750" stroke-width="20" stroke-linecap="round"/>
    <path d="M238 162h44v44h-44z" fill="#071923" stroke="#0B3750" stroke-width="14" stroke-linejoin="round"/>
    <path d="m249 177 12 7-12 7" stroke="#F6B85A" stroke-width="9" stroke-linecap="round" stroke-linejoin="round"/>
    <path d="M238 256h72" stroke="#F6B85A" stroke-width="18" stroke-linecap="round"/>
    <path d="M310 256h68M282 184h72v-44h44M282 328h72v44h44M306 216h86v-36h46M306 296h86v36h46" stroke="#6EE7D8" stroke-width="18" stroke-linecap="round" stroke-linejoin="round"/>
    <circle cx="416" cy="140" r="28" fill="#F6B85A" stroke="#6EE7D8" stroke-width="16"/>
    <circle cx="456" cy="180" r="28" fill="#F6B85A" stroke="#6EE7D8" stroke-width="16"/>
    <circle cx="456" cy="332" r="28" fill="#F6B85A" stroke="#6EE7D8" stroke-width="16"/>
    <circle cx="416" cy="372" r="28" fill="#F6B85A" stroke="#6EE7D8" stroke-width="16"/>
    <circle cx="406" cy="256" r="30" fill="#F6B85A" stroke="#6EE7D8" stroke-width="16"/>
  </g>
  <text x="334" y="143" fill="#F7FBFC" font-family="Inter, Segoe UI, Arial, sans-serif" font-size="72" font-weight="750">Setup OS</text>
  <text x="338" y="205" fill="#9BB5BF" font-family="Inter, Segoe UI, Arial, sans-serif" font-size="30" font-weight="500">AI systems architect for local, self-hosted operating systems</text>
  <path d="M340 238h190" stroke="#6EE7D8" stroke-width="8" stroke-linecap="round"/>
  <path d="M552 238h80" stroke="#F6B85A" stroke-width="8" stroke-linecap="round"/>
</svg>
