<svg width="1280" height="640" viewBox="0 0 1280 640" fill="none" xmlns="http://www.w3.org/2000/svg" role="img" aria-labelledby="title desc">
  <title id="title">Setup OS social card</title>
  <desc id="desc">Social preview card for Setup OS with the half gear circuit brand mark.</desc>
  <rect width="1280" height="640" fill="#071923"/>
  <path d="M0 520h1280v120H0z" fill="#0B3750"/>
  <g transform="translate(88 88) scale(.75)">
    <rect width="512" height="512" rx="112" fill="#071923"/>
    <path d="M232 88h-54l-9 45a134 134 0 0 0-28 12l-38-25-38 38 25 38a134 134 0 0 0-12 28l-45 9v54l45 9a134 134 0 0 0 12 28l-25 38 38 38 38-25a134 134 0 0 0 28 12l9 45h54v-70a104 104 0 0 1 0-208V88Z" fill="#6EE7D8"/>
    <path d="M232 88h-54l-9 45a134 134 0 0 0-28 12l-38-25-38 38 25 38a134 134 0 0 0-12 28l-45 9v54l45 9a134 134 0 0 0 12 28l-25 38 38 38 38-25a134 134 0 0 0 28 12l9 45h54" stroke="#0B3750" stroke-width="20" stroke-linejoin="round"/>
    <path d="M232 154a104 104 0 0 0 0 208M232 204a54 54 0 0 0 0 108" stroke="#0B3750" stroke-width="20" stroke-linecap="round"/>
    <path d="M238 162h44v44h-44z" fill="#071923" stroke="#0B3750" stroke-width="14" stroke-linejoin="round"/>
    <path d="m249 177 12 7-12 7" stroke="#F6B85A" stroke-width="9" stroke-linecap="round" stroke-linejoin="round"/>
    <path d="M238 256h72" stroke="#F6B85A" stroke-width="18" stroke-linecap="round"/>
    <path d="M310 256h68M282 184h72v-44h44M282 328h72v44h44M306 216h86v-36h46M306 296h86v36h46" stroke="#6EE7D8" stroke-width="18" stroke-linecap="round" stroke-linejoin="round"/>
    <circle cx="416" cy="140" r="28" fill="#F6B85A" stroke="#6EE7D8" stroke-width="16"/>
    <circle cx="456" cy="180" r="28" fill="#F6B85A" stroke="#6EE7D8" stroke-width="16"/>
    <circle cx="456" cy="332" r="28" fill="#F6B85A" stroke="#6EE7D8" stroke-width="16"/>
    <circle cx="416" cy="372" r="28" fill="#F6B85A" stroke="#6EE7D8" stroke-width="16"/>
    <circle cx="406" cy="256" r="30" fill="#F6B85A" stroke="#6EE7D8" stroke-width="16"/>
  </g>
  <text x="548" y="238" fill="#F7FBFC" font-family="Inter, Segoe UI, Arial, sans-serif" font-size="96" font-weight="760">Setup OS</text>
  <text x="554" y="320" fill="#B8CDD5" font-family="Inter, Segoe UI, Arial, sans-serif" font-size="40" font-weight="520">AI systems architect</text>
  <text x="554" y="380" fill="#B8CDD5" font-family="Inter, Segoe UI, Arial, sans-serif" font-size="40" font-weight="520">for local self-hosted systems</text>
  <path d="M556 432h218" stroke="#6EE7D8" stroke-width="10" stroke-linecap="round"/>
  <path d="M804 432h102" stroke="#F6B85A" stroke-width="10" stroke-linecap="round"/>
</svg>
